<svg width="192" height="56" viewBox="0 0 192 56" fill="none" xmlns="http://www.w3.org/2000/svg">
<rect width="192" height="56" rx="8" fill="url(#paint0_linear_1_50)"/>
<rect x="1.05" y="1.05" width="189.9" height="53.9" rx="6.95" stroke="white" stroke-opacity="0.15" stroke-width="2.1"/>
<path d="M20.6705 12.3707C25.2564 15.8135 30.1888 22.7944 32 26.5403C33.8112 22.7944 38.7436 15.8135 43.3295 12.3707C46.6385 9.88647 52 7.96436 52 14.0807C52 15.3022 51.2996 24.3422 50.8889 25.8099C49.4611 30.9122 44.2582 32.2137 39.6301 31.426C47.7199 32.8028 49.7777 37.3634 45.3333 41.9239C36.8925 50.5853 33.2015 39.7508 32.2557 36.9746C32.0823 36.4656 32.0012 36.2275 32 36.43C31.9988 36.2275 31.9177 36.4656 31.7443 36.9746C30.7985 39.7508 27.1075 50.5853 18.6667 41.9239C14.2223 37.3634 16.2801 32.8028 24.3699 31.426C19.7418 32.2137 14.5389 30.9122 13.1111 25.8099C12.7004 24.3422 12 15.3022 12 14.0807C12 7.96436 17.3615 9.88647 20.6705 12.3707Z" fill="#1185FE"/>
<g filter="url(#filter0_d_1_50)">
<path d="M70.9432 16.6477H69.1705C69.1023 16.2689 68.9754 15.9356 68.7898 15.6477C68.6042 15.3599 68.3769 15.1155 68.108 14.9148C67.839 14.714 67.5379 14.5625 67.2045 14.4602C66.875 14.358 66.5246 14.3068 66.1534 14.3068C65.483 14.3068 64.8826 14.4754 64.3523 14.8125C63.8258 15.1496 63.4091 15.6439 63.1023 16.2955C62.7992 16.947 62.6477 17.7424 62.6477 18.6818C62.6477 19.6288 62.7992 20.428 63.1023 21.0795C63.4091 21.7311 63.8277 22.2235 64.358 22.5568C64.8883 22.8902 65.4848 23.0568 66.1477 23.0568C66.5151 23.0568 66.8636 23.0076 67.1932 22.9091C67.5265 22.8068 67.8276 22.6572 68.0966 22.4602C68.3655 22.2633 68.5928 22.0227 68.7784 21.7386C68.9678 21.4508 69.0985 21.1212 69.1705 20.75L70.9432 20.7557C70.8485 21.3277 70.6648 21.8542 70.392 22.3352C70.1231 22.8125 69.7765 23.2254 69.3523 23.5739C68.9318 23.9186 68.4508 24.1856 67.9091 24.375C67.3674 24.5644 66.7765 24.6591 66.1364 24.6591C65.1288 24.6591 64.2311 24.4205 63.4432 23.9432C62.6553 23.4621 62.0341 22.7746 61.5795 21.8807C61.1288 20.9867 60.9034 19.9205 60.9034 18.6818C60.9034 17.4394 61.1307 16.3731 61.5852 15.483C62.0398 14.589 62.661 13.9034 63.4489 13.4261C64.2367 12.9451 65.1326 12.7045 66.1364 12.7045C66.7538 12.7045 67.3295 12.7936 67.8636 12.9716C68.4015 13.1458 68.8845 13.4034 69.3125 13.7443C69.7405 14.0814 70.0947 14.4943 70.375 14.983C70.6553 15.4678 70.8447 16.0227 70.9432 16.6477ZM74.6065 19.3182V24.5H72.9077V12.8636H74.5838V17.1932H74.6918C74.8963 16.7235 75.2088 16.3504 75.6293 16.0739C76.0497 15.7974 76.599 15.6591 77.277 15.6591C77.8755 15.6591 78.3982 15.7822 78.8452 16.0284C79.2959 16.2746 79.6444 16.642 79.8906 17.1307C80.1406 17.6155 80.2656 18.2216 80.2656 18.9489V24.5H78.5668V19.1534C78.5668 18.5133 78.402 18.017 78.0724 17.6648C77.7429 17.3087 77.2846 17.1307 76.6974 17.1307C76.2959 17.1307 75.9361 17.2159 75.6179 17.3864C75.3035 17.5568 75.0554 17.8068 74.8736 18.1364C74.6955 18.4621 74.6065 18.8561 74.6065 19.3182ZM85.0724 24.6932C84.5194 24.6932 84.0194 24.5909 83.5724 24.3864C83.1255 24.178 82.7713 23.8769 82.5099 23.483C82.2524 23.089 82.1236 22.6061 82.1236 22.0341C82.1236 21.5417 82.2183 21.1364 82.4077 20.8182C82.5971 20.5 82.8527 20.2481 83.1747 20.0625C83.4967 19.8769 83.8565 19.7367 84.2543 19.642C84.652 19.5474 85.0573 19.4754 85.4702 19.4261C85.9929 19.3655 86.4171 19.3163 86.7429 19.2784C87.0686 19.2367 87.3054 19.1705 87.4531 19.0795C87.6008 18.9886 87.6747 18.8409 87.6747 18.6364V18.5966C87.6747 18.1004 87.5346 17.7159 87.2543 17.4432C86.9777 17.1705 86.5649 17.0341 86.0156 17.0341C85.4436 17.0341 84.9929 17.161 84.6633 17.4148C84.3376 17.6648 84.1122 17.9432 83.9872 18.25L82.3906 17.8864C82.58 17.3561 82.8565 16.928 83.2202 16.6023C83.5876 16.2727 84.0099 16.0341 84.4872 15.8864C84.9645 15.7349 85.4664 15.6591 85.9929 15.6591C86.3414 15.6591 86.7107 15.7008 87.1008 15.7841C87.4948 15.8636 87.8622 16.0114 88.2031 16.2273C88.5478 16.4432 88.83 16.7519 89.0497 17.1534C89.2694 17.5511 89.3793 18.0682 89.3793 18.7045V24.5H87.7202V23.3068H87.652C87.5421 23.5265 87.3774 23.7424 87.1577 23.9545C86.938 24.1667 86.6558 24.3428 86.3111 24.483C85.9664 24.6231 85.5535 24.6932 85.0724 24.6932ZM85.4418 23.3295C85.9115 23.3295 86.313 23.2367 86.6463 23.0511C86.9834 22.8655 87.2391 22.6231 87.4133 22.3239C87.5914 22.0208 87.6804 21.697 87.6804 21.3523V20.2273C87.6198 20.2879 87.5024 20.3447 87.3281 20.3977C87.1577 20.447 86.9626 20.4905 86.7429 20.5284C86.5232 20.5625 86.3092 20.5947 86.1008 20.625C85.8925 20.6515 85.7183 20.6742 85.5781 20.6932C85.2486 20.7348 84.9474 20.8049 84.6747 20.9034C84.4058 21.0019 84.1899 21.1439 84.027 21.3295C83.8679 21.5114 83.7883 21.7538 83.7883 22.0568C83.7883 22.4773 83.9436 22.7955 84.2543 23.0114C84.5649 23.2235 84.9607 23.3295 85.4418 23.3295ZM95.7159 15.7727V17.1364H90.9489V15.7727H95.7159ZM92.2273 13.6818H93.9261V21.9375C93.9261 22.267 93.9754 22.5152 94.0739 22.6818C94.1723 22.8447 94.2992 22.9564 94.4545 23.017C94.6136 23.0739 94.786 23.1023 94.9716 23.1023C95.1079 23.1023 95.2273 23.0928 95.3295 23.0739C95.4318 23.0549 95.5114 23.0398 95.5682 23.0284L95.875 24.4318C95.7765 24.4697 95.6364 24.5076 95.4545 24.5455C95.2727 24.5871 95.0454 24.6098 94.7727 24.6136C94.3257 24.6212 93.9091 24.5417 93.5227 24.375C93.1364 24.2083 92.8239 23.9508 92.5852 23.6023C92.3466 23.2538 92.2273 22.8163 92.2273 22.2898V13.6818ZM103.722 24.5L101.153 15.7727H102.909L104.619 22.1818H104.705L106.42 15.7727H108.176L109.881 22.1534H109.966L111.665 15.7727H113.42L110.858 24.5H109.125L107.352 18.1989H107.222L105.449 24.5H103.722ZM115.033 24.5V15.7727H116.732V24.5H115.033ZM115.891 14.4261C115.595 14.4261 115.341 14.3277 115.129 14.1307C114.921 13.9299 114.817 13.6913 114.817 13.4148C114.817 13.1345 114.921 12.8958 115.129 12.6989C115.341 12.4981 115.595 12.3977 115.891 12.3977C116.186 12.3977 116.438 12.4981 116.646 12.6989C116.858 12.8958 116.964 13.1345 116.964 13.4148C116.964 13.6913 116.858 13.9299 116.646 14.1307C116.438 14.3277 116.186 14.4261 115.891 14.4261ZM123.091 15.7727V17.1364H118.324V15.7727H123.091ZM119.602 13.6818H121.301V21.9375C121.301 22.267 121.35 22.5152 121.449 22.6818C121.547 22.8447 121.674 22.9564 121.83 23.017C121.989 23.0739 122.161 23.1023 122.347 23.1023C122.483 23.1023 122.602 23.0928 122.705 23.0739C122.807 23.0549 122.886 23.0398 122.943 23.0284L123.25 24.4318C123.151 24.4697 123.011 24.5076 122.83 24.5455C122.648 24.5871 122.42 24.6098 122.148 24.6136C121.701 24.6212 121.284 24.5417 120.898 24.375C120.511 24.2083 120.199 23.9508 119.96 23.6023C119.722 23.2538 119.602 22.8163 119.602 22.2898V13.6818ZM126.857 19.3182V24.5H125.158V12.8636H126.834V17.1932H126.942C127.146 16.7235 127.459 16.3504 127.879 16.0739C128.3 15.7974 128.849 15.6591 129.527 15.6591C130.125 15.6591 130.648 15.7822 131.095 16.0284C131.546 16.2746 131.894 16.642 132.141 17.1307C132.391 17.6155 132.516 18.2216 132.516 18.9489V24.5H130.817V19.1534C130.817 18.5133 130.652 18.017 130.322 17.6648C129.993 17.3087 129.535 17.1307 128.947 17.1307C128.546 17.1307 128.186 17.2159 127.868 17.3864C127.553 17.5568 127.305 17.8068 127.124 18.1364C126.946 18.4621 126.857 18.8561 126.857 19.3182ZM144.545 20.8807V15.7727H146.25V24.5H144.58V22.9886H144.489C144.288 23.4545 143.966 23.8428 143.523 24.1534C143.083 24.4602 142.536 24.6136 141.881 24.6136C141.32 24.6136 140.824 24.4905 140.392 24.2443C139.964 23.9943 139.627 23.625 139.381 23.1364C139.138 22.6477 139.017 22.0436 139.017 21.3239V15.7727H140.716V21.1193C140.716 21.714 140.881 22.1875 141.21 22.5398C141.54 22.892 141.968 23.0682 142.494 23.0682C142.812 23.0682 143.129 22.9886 143.443 22.8295C143.761 22.6705 144.025 22.4299 144.233 22.108C144.445 21.786 144.549 21.3769 144.545 20.8807ZM155.072 17.9034L153.533 18.1761C153.468 17.9792 153.366 17.7917 153.226 17.6136C153.089 17.4356 152.904 17.2898 152.669 17.1761C152.434 17.0625 152.141 17.0057 151.788 17.0057C151.307 17.0057 150.906 17.1136 150.584 17.3295C150.262 17.5417 150.101 17.8163 150.101 18.1534C150.101 18.4451 150.209 18.6799 150.425 18.858C150.641 19.036 150.989 19.1818 151.47 19.2955L152.857 19.6136C153.66 19.7992 154.258 20.0852 154.652 20.4716C155.046 20.858 155.243 21.3598 155.243 21.9773C155.243 22.5 155.091 22.9659 154.788 23.375C154.489 23.7803 154.071 24.0985 153.533 24.3295C152.999 24.5606 152.379 24.6761 151.675 24.6761C150.697 24.6761 149.9 24.4678 149.283 24.0511C148.665 23.6307 148.286 23.0341 148.146 22.2614L149.788 22.0114C149.891 22.4394 150.101 22.7633 150.419 22.983C150.737 23.1989 151.152 23.3068 151.663 23.3068C152.22 23.3068 152.665 23.1913 152.999 22.9602C153.332 22.7254 153.499 22.4394 153.499 22.1023C153.499 21.8295 153.396 21.6004 153.192 21.4148C152.991 21.2292 152.682 21.089 152.266 20.9943L150.788 20.6705C149.974 20.4848 149.372 20.1894 148.982 19.7841C148.595 19.3788 148.402 18.8655 148.402 18.2443C148.402 17.7292 148.546 17.2784 148.834 16.892C149.122 16.5057 149.519 16.2045 150.027 15.9886C150.535 15.7689 151.116 15.6591 151.771 15.6591C152.714 15.6591 153.457 15.8636 153.999 16.2727C154.54 16.678 154.898 17.2216 155.072 17.9034ZM165.021 24.6761C164.203 24.6761 163.489 24.4886 162.879 24.1136C162.269 23.7386 161.796 23.214 161.459 22.5398C161.122 21.8655 160.953 21.0777 160.953 20.1761C160.953 19.2708 161.122 18.4792 161.459 17.8011C161.796 17.1231 162.269 16.5966 162.879 16.2216C163.489 15.8466 164.203 15.6591 165.021 15.6591C165.839 15.6591 166.553 15.8466 167.163 16.2216C167.773 16.5966 168.247 17.1231 168.584 17.8011C168.921 18.4792 169.089 19.2708 169.089 20.1761C169.089 21.0777 168.921 21.8655 168.584 22.5398C168.247 23.214 167.773 23.7386 167.163 24.1136C166.553 24.4886 165.839 24.6761 165.021 24.6761ZM165.027 23.25C165.557 23.25 165.997 23.1098 166.345 22.8295C166.694 22.5492 166.951 22.1761 167.118 21.7102C167.288 21.2443 167.374 20.7311 167.374 20.1705C167.374 19.6136 167.288 19.1023 167.118 18.6364C166.951 18.1667 166.694 17.7898 166.345 17.5057C165.997 17.2216 165.557 17.0795 165.027 17.0795C164.493 17.0795 164.05 17.2216 163.697 17.5057C163.349 17.7898 163.089 18.1667 162.919 18.6364C162.752 19.1023 162.669 19.6136 162.669 20.1705C162.669 20.7311 162.752 21.2443 162.919 21.7102C163.089 22.1761 163.349 22.5492 163.697 22.8295C164.05 23.1098 164.493 23.25 165.027 23.25ZM172.685 19.3182V24.5H170.986V15.7727H172.616V17.1932H172.724C172.925 16.7311 173.24 16.3599 173.668 16.0795C174.099 15.7992 174.643 15.6591 175.298 15.6591C175.893 15.6591 176.414 15.7841 176.861 16.0341C177.308 16.2803 177.654 16.6477 177.901 17.1364C178.147 17.625 178.27 18.2292 178.27 18.9489V24.5H176.571V19.1534C176.571 18.5208 176.406 18.0265 176.077 17.6705C175.747 17.3106 175.294 17.1307 174.719 17.1307C174.325 17.1307 173.974 17.2159 173.668 17.3864C173.365 17.5568 173.124 17.8068 172.946 18.1364C172.772 18.4621 172.685 18.8561 172.685 19.3182Z" fill="#E8E8E8"/>
<path d="M60.9357 43.5V31.1364H66.0913C67.0169 31.1364 67.7917 31.2672 68.4155 31.5288C69.0433 31.7904 69.5142 32.1566 69.8281 32.6275C70.1461 33.0984 70.305 33.6437 70.305 34.2635C70.305 34.7344 70.2064 35.1549 70.0092 35.5252C69.812 35.8915 69.5404 36.1953 69.1942 36.4368C68.8481 36.6783 68.4477 36.8473 67.9929 36.9439V37.0646C68.4919 37.0888 68.9528 37.2236 69.3754 37.4691C69.802 37.7146 70.1441 38.0567 70.4016 38.4954C70.6592 38.93 70.788 39.4452 70.788 40.0408C70.788 40.7049 70.619 41.2985 70.2809 41.8217C69.9428 42.3409 69.4538 42.7514 68.8139 43.0533C68.174 43.3511 67.3973 43.5 66.4837 43.5H60.9357ZM63.924 41.0913H65.7713C66.4193 41.0913 66.8962 40.9685 67.2021 40.723C67.512 40.4775 67.6669 40.1354 67.6669 39.6967C67.6669 39.3788 67.5924 39.1051 67.4435 38.8757C67.2946 38.6423 67.0833 38.4632 66.8097 38.3384C66.536 38.2096 66.208 38.1452 65.8256 38.1452H63.924V41.0913ZM63.924 36.2195H65.5781C65.9041 36.2195 66.1939 36.1651 66.4474 36.0565C66.701 35.9478 66.8982 35.7908 67.0391 35.5856C67.1839 35.3803 67.2564 35.1328 67.2564 34.843C67.2564 34.4285 67.1095 34.1025 66.8157 33.8651C66.5219 33.6276 66.1255 33.5089 65.6264 33.5089H63.924V36.2195ZM75.1768 31.1364V43.5H72.2248V31.1364H75.1768ZM83.0384 39.4975V34.2273H85.9845V43.5H83.1712V41.7734H83.0747C82.8694 42.3409 82.5193 42.7917 82.0242 43.1257C81.5332 43.4557 80.9396 43.6207 80.2433 43.6207C79.6115 43.6207 79.0561 43.4758 78.5771 43.1861C78.0982 42.8963 77.7259 42.4918 77.4603 41.9727C77.1947 41.4495 77.0599 40.8377 77.0558 40.1374V34.2273H80.0079V39.5579C80.0119 40.061 80.1447 40.4574 80.4063 40.7472C80.6679 41.0369 81.0241 41.1818 81.4749 41.1818C81.7687 41.1818 82.0323 41.1174 82.2657 40.9886C82.5032 40.8558 82.6903 40.6647 82.8271 40.4151C82.968 40.1616 83.0384 39.8557 83.0384 39.4975ZM92.198 43.6751C91.228 43.6751 90.3909 43.4839 89.6866 43.1016C88.9863 42.7152 88.447 42.1658 88.0687 41.4535C87.6944 40.7371 87.5073 39.8859 87.5073 38.8999C87.5073 37.942 87.6964 37.1049 88.0747 36.3885C88.4531 35.6681 88.9863 35.1087 89.6745 34.7102C90.3627 34.3078 91.1737 34.1065 92.1074 34.1065C92.7675 34.1065 93.3711 34.2092 93.9185 34.4144C94.4658 34.6197 94.9387 34.9235 95.3372 35.326C95.7356 35.7285 96.0455 36.2255 96.2669 36.8171C96.4882 37.4047 96.5989 38.0788 96.5989 38.8395V39.576H88.5396V37.8615H93.8521C93.8481 37.5476 93.7736 37.2679 93.6287 37.0224C93.4838 36.7769 93.2846 36.5857 93.0311 36.4489C92.7815 36.308 92.4938 36.2376 92.1678 36.2376C91.8378 36.2376 91.542 36.312 91.2804 36.4609C91.0188 36.6058 90.8115 36.805 90.6585 37.0586C90.5056 37.3081 90.4251 37.5919 90.4171 37.9098V39.6545C90.4171 40.0328 90.4915 40.3648 90.6404 40.6506C90.7893 40.9323 91.0006 41.1516 91.2743 41.3086C91.548 41.4656 91.874 41.544 92.2523 41.544C92.5139 41.544 92.7514 41.5078 92.9647 41.4354C93.178 41.3629 93.3611 41.2563 93.514 41.1154C93.667 40.9745 93.7817 40.8015 93.8581 40.5962L96.5687 40.6747C96.456 41.2824 96.2085 41.8117 95.8262 42.2624C95.4478 42.7092 94.9508 43.0573 94.335 43.3068C93.7193 43.5523 93.0069 43.6751 92.198 43.6751ZM106.202 37.0586L103.492 37.131C103.463 36.9379 103.387 36.7668 103.262 36.6179C103.137 36.465 102.974 36.3462 102.773 36.2617C102.576 36.1732 102.347 36.1289 102.085 36.1289C101.743 36.1289 101.451 36.1973 101.21 36.3342C100.972 36.471 100.855 36.6561 100.859 36.8896C100.855 37.0707 100.928 37.2276 101.077 37.3604C101.23 37.4932 101.501 37.5999 101.892 37.6804L103.679 38.0185C104.604 38.1955 105.293 38.4893 105.743 38.8999C106.198 39.3104 106.428 39.8537 106.432 40.5298C106.428 41.1657 106.238 41.7191 105.864 42.19C105.494 42.6609 104.987 43.0271 104.343 43.2887C103.699 43.5463 102.962 43.6751 102.133 43.6751C100.809 43.6751 99.7648 43.4034 99.0001 42.8601C98.2394 42.3127 97.8048 41.5803 97.6961 40.6626L100.612 40.5902C100.676 40.9283 100.843 41.1858 101.113 41.3629C101.383 41.54 101.727 41.6285 102.145 41.6285C102.524 41.6285 102.832 41.5581 103.069 41.4173C103.306 41.2764 103.427 41.0892 103.431 40.8558C103.427 40.6465 103.335 40.4795 103.153 40.3548C102.972 40.226 102.689 40.1254 102.302 40.0529L100.684 39.745C99.7547 39.576 99.0625 39.2641 98.6077 38.8093C98.1529 38.3505 97.9275 37.7669 97.9315 37.0586C97.9275 36.4388 98.0925 35.9096 98.4266 35.4709C98.7606 35.0282 99.2355 34.6901 99.8513 34.4567C100.467 34.2232 101.193 34.1065 102.031 34.1065C103.286 34.1065 104.276 34.3701 105.001 34.8974C105.725 35.4206 106.126 36.141 106.202 37.0586ZM110.547 41.0671L110.559 37.5476H110.97L113.578 34.2273H116.922L113.047 38.9844H112.268L110.547 41.0671ZM107.885 43.5V31.1364H110.837V43.5H107.885ZM113.644 43.5L111.217 39.6484L113.161 37.5536L117.055 43.5H113.644ZM119.983 46.9773C119.629 46.9773 119.295 46.9491 118.981 46.8928C118.667 46.8404 118.397 46.77 118.172 46.6815L118.824 44.5383C119.114 44.6349 119.375 44.6913 119.609 44.7074C119.846 44.7235 120.049 44.6852 120.218 44.5927C120.391 44.5041 120.524 44.3452 120.617 44.1158L120.732 43.8381L117.435 34.2273H120.526L122.235 40.8437H122.331L124.064 34.2273H127.173L123.678 44.3874C123.509 44.8945 123.269 45.3413 122.959 45.7276C122.653 46.118 122.257 46.4239 121.77 46.6452C121.287 46.8666 120.691 46.9773 119.983 46.9773Z" fill="#1185FE"/>
</g>
<defs>
<filter id="filter0_d_1_50" x="54.4" y="3.9" width="131.2" height="48.6773" filterUnits="userSpaceOnUse" color-interpolation-filters="sRGB">
<feFlood flood-opacity="0" result="BackgroundImageFix"/>
<feColorMatrix in="SourceAlpha" type="matrix" values="0 0 0 0 0 0 0 0 0 0 0 0 0 0 0 0 0 0 127 0" result="hardAlpha"/>
<feOffset/>
<feGaussianBlur stdDeviation="2.8"/>
<feComposite in2="hardAlpha" operator="out"/>
<feColorMatrix type="matrix" values="0 0 0 0 0 0 0 0 0 0 0 0 0 0 0 0 0 0 0.25 0"/>
<feBlend mode="normal" in2="BackgroundImageFix" result="effect1_dropShadow_1_50"/>
<feBlend mode="normal" in="SourceGraphic" in2="effect1_dropShadow_1_50" result="shape"/>
</filter>
<linearGradient id="paint0_linear_1_50" x1="96" y1="0" x2="96" y2="56" gradientUnits="userSpaceOnUse">
<stop stop-color="#09437F"/>
<stop offset="1" stop-color="#05284C"/>
</linearGradient>
</defs>
</svg>
