<svg width="249" height="40" viewBox="0 0 249 40" fill="none" xmlns="http://www.w3.org/2000/svg">
<rect width="249" height="40" rx="8" fill="url(#paint0_linear_1_56)"/>
<rect x="1.07143" y="1.07143" width="246.857" height="37.8571" rx="6.92857" stroke="white" stroke-opacity="0.15" stroke-width="2.14286"/>
<path d="M14.0693 9.65949C17.2795 12.0695 20.7322 16.9561 22 19.5782C23.2678 16.9561 26.7205 12.0695 29.9307 9.65949C32.2469 7.92053 36 6.57505 36 10.8565C36 11.7116 35.5098 18.0395 35.2222 19.0669C34.2227 22.6386 30.5808 23.5496 27.341 22.9982C33.0039 23.962 34.4444 27.1544 31.3333 30.3468C25.4247 36.4097 22.841 28.8255 22.179 26.8822C22.0576 26.5259 22.0008 26.3593 22 26.501C21.9992 26.3593 21.9424 26.5259 21.821 26.8822C21.159 28.8255 18.5753 36.4097 12.6667 30.3468C9.55558 27.1544 10.9961 23.962 16.659 22.9982C13.4192 23.5496 9.77726 22.6386 8.77779 19.0669C8.49025 18.0395 8 11.7116 8 10.8565C8 6.57505 11.7531 7.92053 14.0693 9.65949Z" fill="#1185FE"/>
<g filter="url(#filter0_d_1_56)">
<path d="M53.6271 18.157H51.7436C51.6712 17.7545 51.5363 17.4003 51.3391 17.0945C51.1419 16.7886 50.9004 16.529 50.6147 16.3157C50.3289 16.1024 50.009 15.9414 49.6548 15.8327C49.3047 15.7241 48.9324 15.6697 48.538 15.6697C47.8256 15.6697 47.1877 15.8488 46.6243 16.207C46.0649 16.5652 45.6222 17.0904 45.2962 17.7827C44.9742 18.4749 44.8132 19.3201 44.8132 20.3182C44.8132 21.3243 44.9742 22.1735 45.2962 22.8658C45.6222 23.558 46.0669 24.0812 46.6303 24.4354C47.1938 24.7895 47.8276 24.9666 48.532 24.9666C48.9223 24.9666 49.2926 24.9143 49.6427 24.8097C49.9969 24.701 50.3169 24.542 50.6026 24.3327C50.8884 24.1235 51.1298 23.8679 51.327 23.566C51.5283 23.2602 51.6671 22.91 51.7436 22.5156L53.6271 22.5217C53.5265 23.1294 53.3313 23.6888 53.0415 24.1999C52.7558 24.707 52.3875 25.1457 51.9368 25.516C51.49 25.8822 50.9789 26.166 50.4034 26.3672C49.8279 26.5684 49.2 26.669 48.5199 26.669C47.4493 26.669 46.4955 26.4155 45.6584 25.9084C44.8213 25.3972 44.1612 24.6668 43.6783 23.717C43.1993 22.7672 42.9599 21.6342 42.9599 20.3182C42.9599 18.9981 43.2013 17.8652 43.6843 16.9194C44.1673 15.9696 44.8273 15.2411 45.6644 14.734C46.5015 14.2229 47.4534 13.9673 48.5199 13.9673C49.1759 13.9673 49.7876 14.0619 50.3551 14.2511C50.9266 14.4362 51.4397 14.7099 51.8945 15.0721C52.3493 15.4303 52.7256 15.869 53.0234 16.3881C53.3212 16.9033 53.5225 17.4929 53.6271 18.157ZM57.5194 20.9943V26.5H55.7144V14.1364H57.4953V18.7365H57.61C57.8273 18.2374 58.1593 17.841 58.6061 17.5472C59.0528 17.2534 59.6364 17.1065 60.3568 17.1065C60.9927 17.1065 61.5481 17.2373 62.023 17.4989C62.5019 17.7605 62.8722 18.1509 63.1338 18.6701C63.3994 19.1852 63.5322 19.8292 63.5322 20.6019V26.5H61.7272V20.8192C61.7272 20.1391 61.5521 19.6119 61.202 19.2376C60.8518 18.8593 60.3648 18.6701 59.741 18.6701C59.3144 18.6701 58.9321 18.7607 58.594 18.9418C58.26 19.1229 57.9963 19.3885 57.8032 19.7386C57.614 20.0848 57.5194 20.5033 57.5194 20.9943ZM68.6395 26.7053C68.0519 26.7053 67.5206 26.5966 67.0457 26.3793C66.5708 26.1579 66.1945 25.8379 65.9168 25.4194C65.6431 25.0008 65.5063 24.4877 65.5063 23.88C65.5063 23.3568 65.6069 22.9261 65.8081 22.5881C66.0094 22.25 66.281 21.9824 66.6231 21.7852C66.9652 21.5879 67.3476 21.439 67.7701 21.3384C68.1927 21.2378 68.6234 21.1613 69.062 21.109C69.6174 21.0446 70.0682 20.9923 70.4143 20.9521C70.7604 20.9078 71.012 20.8374 71.1689 20.7408C71.3259 20.6442 71.4044 20.4872 71.4044 20.2699V20.2276C71.4044 19.7004 71.2555 19.2919 70.9576 19.0021C70.6638 18.7124 70.2252 18.5675 69.6416 18.5675C69.0339 18.5675 68.5549 18.7023 68.2048 18.9719C67.8587 19.2376 67.6192 19.5334 67.4864 19.8594L65.79 19.473C65.9913 18.9096 66.2851 18.4548 66.6714 18.1087C67.0618 17.7585 67.5105 17.505 68.0177 17.348C68.5248 17.187 69.058 17.1065 69.6174 17.1065C69.9877 17.1065 70.3801 17.1508 70.7946 17.2393C71.2132 17.3239 71.6036 17.4808 71.9658 17.7102C72.332 17.9396 72.6319 18.2676 72.8653 18.6942C73.0987 19.1168 73.2154 19.6662 73.2154 20.3423V26.5H71.4527V25.2322H71.3802C71.2635 25.4657 71.0884 25.6951 70.855 25.9204C70.6216 26.1458 70.3217 26.333 69.9555 26.4819C69.5893 26.6308 69.1506 26.7053 68.6395 26.7053ZM69.0319 25.2564C69.5309 25.2564 69.9575 25.1578 70.3117 24.9606C70.6699 24.7634 70.9415 24.5058 71.1267 24.1879C71.3158 23.8659 71.4104 23.5218 71.4104 23.1555V21.9602C71.346 22.0246 71.2212 22.085 71.0361 22.1413C70.855 22.1937 70.6477 22.2399 70.4143 22.2802C70.1809 22.3164 69.9535 22.3506 69.7321 22.3828C69.5108 22.411 69.3257 22.4351 69.1767 22.4553C68.8266 22.4995 68.5066 22.574 68.2169 22.6786C67.9311 22.7833 67.7017 22.9342 67.5287 23.1314C67.3596 23.3246 67.2751 23.5821 67.2751 23.9041C67.2751 24.3508 67.4401 24.6889 67.7701 24.9183C68.1002 25.1437 68.5207 25.2564 69.0319 25.2564ZM79.9481 17.2273V18.6761H74.8832V17.2273H79.9481ZM76.2415 15.0057H78.0465V23.7773C78.0465 24.1275 78.0988 24.3911 78.2035 24.5682C78.3081 24.7412 78.4429 24.86 78.6079 24.9244C78.777 24.9847 78.9601 25.0149 79.1573 25.0149C79.3022 25.0149 79.429 25.0048 79.5376 24.9847C79.6463 24.9646 79.7308 24.9485 79.7912 24.9364L80.1172 26.4276C80.0125 26.4678 79.8636 26.508 79.6704 26.5483C79.4773 26.5926 79.2358 26.6167 78.946 26.6207C78.4711 26.6288 78.0284 26.5443 77.6179 26.3672C77.2074 26.1901 76.8753 25.9164 76.6218 25.5462C76.3682 25.1759 76.2415 24.7111 76.2415 24.1516V15.0057ZM88.4542 26.5L85.7255 17.2273H87.5909L89.408 24.0369H89.4986L91.3217 17.2273H93.1871L94.9982 24.0067H95.0888L96.8938 17.2273H98.7592L96.0366 26.5H94.1953L92.3118 19.805H92.1729L90.2894 26.5H88.4542ZM100.472 26.5V17.2273H102.277V26.5H100.472ZM101.384 15.7965C101.07 15.7965 100.8 15.6919 100.575 15.4826C100.353 15.2693 100.243 15.0157 100.243 14.7219C100.243 14.4241 100.353 14.1706 100.575 13.9613C100.8 13.748 101.07 13.6413 101.384 13.6413C101.698 13.6413 101.965 13.748 102.187 13.9613C102.412 14.1706 102.525 14.4241 102.525 14.7219C102.525 15.0157 102.412 15.2693 102.187 15.4826C101.965 15.6919 101.698 15.7965 101.384 15.7965ZM109.034 17.2273V18.6761H103.969V17.2273H109.034ZM105.327 15.0057H107.132V23.7773C107.132 24.1275 107.185 24.3911 107.289 24.5682C107.394 24.7412 107.529 24.86 107.694 24.9244C107.863 24.9847 108.046 25.0149 108.243 25.0149C108.388 25.0149 108.515 25.0048 108.624 24.9847C108.732 24.9646 108.817 24.9485 108.877 24.9364L109.203 26.4276C109.098 26.4678 108.95 26.508 108.756 26.5483C108.563 26.5926 108.322 26.6167 108.032 26.6207C107.557 26.6288 107.114 26.5443 106.704 26.3672C106.293 26.1901 105.961 25.9164 105.708 25.5462C105.454 25.1759 105.327 24.7111 105.327 24.1516V15.0057ZM113.035 20.9943V26.5H111.23V14.1364H113.011V18.7365H113.126C113.343 18.2374 113.675 17.841 114.122 17.5472C114.568 17.2534 115.152 17.1065 115.872 17.1065C116.508 17.1065 117.064 17.2373 117.539 17.4989C118.018 17.7605 118.388 18.1509 118.649 18.6701C118.915 19.1852 119.048 19.8292 119.048 20.6019V26.5H117.243V20.8192C117.243 20.1391 117.068 19.6119 116.718 19.2376C116.367 18.8593 115.88 18.6701 115.257 18.6701C114.83 18.6701 114.448 18.7607 114.11 18.9418C113.776 19.1229 113.512 19.3885 113.319 19.7386C113.13 20.0848 113.035 20.5033 113.035 20.9943ZM131.83 22.6545V17.2273H133.641V26.5H131.866V24.8942H131.769C131.556 25.3892 131.214 25.8017 130.743 26.1317C130.276 26.4577 129.694 26.6207 128.998 26.6207C128.403 26.6207 127.875 26.4899 127.417 26.2283C126.962 25.9627 126.604 25.5703 126.342 25.0511C126.084 24.532 125.956 23.89 125.956 23.1254V17.2273H127.761V22.908C127.761 23.5399 127.936 24.043 128.286 24.4173C128.636 24.7915 129.091 24.9787 129.65 24.9787C129.988 24.9787 130.324 24.8942 130.658 24.7251C130.996 24.5561 131.276 24.3005 131.497 23.9584C131.723 23.6164 131.834 23.1817 131.83 22.6545ZM143.014 19.4911L141.378 19.7809C141.31 19.5716 141.201 19.3724 141.052 19.1832C140.908 18.9941 140.71 18.8391 140.461 18.7184C140.211 18.5977 139.899 18.5373 139.525 18.5373C139.014 18.5373 138.587 18.652 138.245 18.8814C137.903 19.1068 137.732 19.3986 137.732 19.7567C137.732 20.0666 137.847 20.3162 138.076 20.5053C138.306 20.6945 138.676 20.8494 139.187 20.9702L140.66 21.3082C141.513 21.5054 142.149 21.8093 142.568 22.2198C142.986 22.6303 143.196 23.1636 143.196 23.8196C143.196 24.375 143.035 24.87 142.713 25.3047C142.395 25.7353 141.95 26.0734 141.378 26.3189C140.811 26.5644 140.153 26.6871 139.404 26.6871C138.366 26.6871 137.519 26.4658 136.863 26.0231C136.207 25.5763 135.804 24.9425 135.655 24.1214L137.4 23.8558C137.509 24.3106 137.732 24.6547 138.07 24.8881C138.408 25.1175 138.849 25.2322 139.392 25.2322C139.984 25.2322 140.457 25.1095 140.811 24.864C141.165 24.6145 141.342 24.3106 141.342 23.9524C141.342 23.6626 141.234 23.4191 141.016 23.2219C140.803 23.0247 140.475 22.8758 140.032 22.7752L138.463 22.4311C137.597 22.2339 136.957 21.92 136.543 21.4893C136.132 21.0587 135.927 20.5134 135.927 19.8533C135.927 19.306 136.08 18.8271 136.386 18.4165C136.692 18.006 137.114 17.6861 137.654 17.4567C138.193 17.2232 138.811 17.1065 139.507 17.1065C140.509 17.1065 141.298 17.3239 141.873 17.7585C142.449 18.1892 142.829 18.7667 143.014 19.4911ZM153.585 26.6871C152.716 26.6871 151.957 26.4879 151.309 26.0895C150.661 25.691 150.158 25.1336 149.8 24.4173C149.442 23.7009 149.263 22.8638 149.263 21.9059C149.263 20.944 149.442 20.1029 149.8 19.3825C150.158 18.662 150.661 18.1026 151.309 17.7042C151.957 17.3058 152.716 17.1065 153.585 17.1065C154.454 17.1065 155.213 17.3058 155.861 17.7042C156.509 18.1026 157.012 18.662 157.37 19.3825C157.728 20.1029 157.908 20.944 157.908 21.9059C157.908 22.8638 157.728 23.7009 157.37 24.4173C157.012 25.1336 156.509 25.691 155.861 26.0895C155.213 26.4879 154.454 26.6871 153.585 26.6871ZM153.591 25.1719C154.155 25.1719 154.621 25.023 154.992 24.7251C155.362 24.4273 155.636 24.0309 155.813 23.5359C155.994 23.0408 156.084 22.4955 156.084 21.8999C156.084 21.3082 155.994 20.7649 155.813 20.2699C155.636 19.7708 155.362 19.3704 154.992 19.0685C154.621 18.7667 154.155 18.6158 153.591 18.6158C153.024 18.6158 152.553 18.7667 152.178 19.0685C151.808 19.3704 151.533 19.7708 151.351 20.2699C151.174 20.7649 151.086 21.3082 151.086 21.8999C151.086 22.4955 151.174 23.0408 151.351 23.5359C151.533 24.0309 151.808 24.4273 152.178 24.7251C152.553 25.023 153.024 25.1719 153.591 25.1719ZM161.727 20.9943V26.5H159.922V17.2273H161.655V18.7365H161.77C161.983 18.2455 162.317 17.8511 162.772 17.5533C163.231 17.2554 163.808 17.1065 164.504 17.1065C165.136 17.1065 165.69 17.2393 166.165 17.505C166.639 17.7666 167.008 18.157 167.269 18.6761C167.531 19.1953 167.662 19.8372 167.662 20.6019V26.5H165.857V20.8192C165.857 20.1471 165.682 19.6219 165.331 19.2436C164.981 18.8613 164.5 18.6701 163.889 18.6701C163.47 18.6701 163.098 18.7607 162.772 18.9418C162.45 19.1229 162.194 19.3885 162.005 19.7386C161.82 20.0848 161.727 20.5033 161.727 20.9943Z" fill="#E8E8E8"/>
<path d="M173.936 26.5V14.1364H179.091C180.017 14.1364 180.792 14.2672 181.415 14.5288C182.043 14.7904 182.514 15.1566 182.828 15.6275C183.146 16.0984 183.305 16.6437 183.305 17.2635C183.305 17.7344 183.206 18.1549 183.009 18.5252C182.812 18.8915 182.54 19.1953 182.194 19.4368C181.848 19.6783 181.448 19.8473 180.993 19.9439V20.0646C181.492 20.0888 181.953 20.2236 182.375 20.4691C182.802 20.7146 183.144 21.0567 183.402 21.4954C183.659 21.93 183.788 22.4452 183.788 23.0408C183.788 23.7049 183.619 24.2985 183.281 24.8217C182.943 25.3409 182.454 25.7514 181.814 26.0533C181.174 26.3511 180.397 26.5 179.484 26.5H173.936ZM176.924 24.0913H178.771C179.419 24.0913 179.896 23.9685 180.202 23.723C180.512 23.4775 180.667 23.1354 180.667 22.6967C180.667 22.3788 180.592 22.1051 180.443 21.8757C180.295 21.6423 180.083 21.4632 179.81 21.3384C179.536 21.2096 179.208 21.1452 178.826 21.1452H176.924V24.0913ZM176.924 19.2195H178.578C178.904 19.2195 179.194 19.1651 179.447 19.0565C179.701 18.9478 179.898 18.7908 180.039 18.5856C180.184 18.3803 180.256 18.1328 180.256 17.843C180.256 17.4285 180.109 17.1025 179.816 16.8651C179.522 16.6276 179.125 16.5089 178.626 16.5089H176.924V19.2195ZM188.177 14.1364V26.5H185.225V14.1364H188.177ZM196.038 22.4975V17.2273H198.984V26.5H196.171V24.7734H196.075C195.869 25.3409 195.519 25.7917 195.024 26.1257C194.533 26.4557 193.94 26.6207 193.243 26.6207C192.611 26.6207 192.056 26.4758 191.577 26.1861C191.098 25.8963 190.726 25.4918 190.46 24.9727C190.195 24.4495 190.06 23.8377 190.056 23.1374V17.2273H193.008V22.5579C193.012 23.061 193.145 23.4574 193.406 23.7472C193.668 24.0369 194.024 24.1818 194.475 24.1818C194.769 24.1818 195.032 24.1174 195.266 23.9886C195.503 23.8558 195.69 23.6646 195.827 23.4151C195.968 23.1616 196.038 22.8557 196.038 22.4975ZM205.198 26.6751C204.228 26.6751 203.391 26.4839 202.687 26.1016C201.986 25.7152 201.447 25.1658 201.069 24.4535C200.694 23.7371 200.507 22.8859 200.507 21.8999C200.507 20.942 200.696 20.1049 201.075 19.3885C201.453 18.6681 201.986 18.1087 202.674 17.7102C203.363 17.3078 204.174 17.1065 205.107 17.1065C205.767 17.1065 206.371 17.2092 206.918 17.4144C207.466 17.6197 207.939 17.9235 208.337 18.326C208.736 18.7285 209.045 19.2255 209.267 19.8171C209.488 20.4047 209.599 21.0788 209.599 21.8395V22.576H201.54V20.8615H206.852C206.848 20.5476 206.774 20.2679 206.629 20.0224C206.484 19.7769 206.285 19.5857 206.031 19.4489C205.781 19.308 205.494 19.2376 205.168 19.2376C204.838 19.2376 204.542 19.312 204.28 19.4609C204.019 19.6058 203.811 19.805 203.659 20.0586C203.506 20.3081 203.425 20.5919 203.417 20.9098V22.6545C203.417 23.0328 203.491 23.3648 203.64 23.6506C203.789 23.9323 204.001 24.1516 204.274 24.3086C204.548 24.4655 204.874 24.544 205.252 24.544C205.514 24.544 205.751 24.5078 205.965 24.4354C206.178 24.3629 206.361 24.2563 206.514 24.1154C206.667 23.9745 206.782 23.8015 206.858 23.5962L209.569 23.6747C209.456 24.2824 209.208 24.8117 208.826 25.2624C208.448 25.7092 207.951 26.0573 207.335 26.3068C206.719 26.5523 206.007 26.6751 205.198 26.6751ZM219.202 20.0586L216.492 20.131C216.463 19.9379 216.387 19.7668 216.262 19.6179C216.137 19.465 215.974 19.3462 215.773 19.2617C215.576 19.1732 215.347 19.1289 215.085 19.1289C214.743 19.1289 214.451 19.1973 214.21 19.3342C213.972 19.471 213.855 19.6561 213.859 19.8896C213.855 20.0707 213.928 20.2276 214.077 20.3604C214.23 20.4932 214.501 20.5999 214.892 20.6804L216.679 21.0185C217.604 21.1955 218.293 21.4893 218.743 21.8999C219.198 22.3104 219.427 22.8537 219.431 23.5298C219.427 24.1657 219.238 24.7191 218.864 25.19C218.494 25.6609 217.987 26.0271 217.343 26.2887C216.699 26.5463 215.962 26.6751 215.133 26.6751C213.809 26.6751 212.765 26.4034 212 25.8601C211.239 25.3127 210.805 24.5803 210.696 23.6626L213.612 23.5902C213.676 23.9283 213.843 24.1858 214.113 24.3629C214.383 24.54 214.727 24.6285 215.145 24.6285C215.524 24.6285 215.831 24.5581 216.069 24.4173C216.306 24.2764 216.427 24.0892 216.431 23.8558C216.427 23.6465 216.335 23.4795 216.153 23.3548C215.972 23.226 215.689 23.1254 215.302 23.0529L213.684 22.745C212.755 22.576 212.062 22.2641 211.608 21.8093C211.153 21.3505 210.927 20.7669 210.931 20.0586C210.927 19.4388 211.092 18.9096 211.427 18.4709C211.761 18.0282 212.235 17.6901 212.851 17.4567C213.467 17.2232 214.193 17.1065 215.031 17.1065C216.286 17.1065 217.276 17.3701 218.001 17.8974C218.725 18.4206 219.126 19.141 219.202 20.0586ZM223.547 24.0671L223.559 20.5476H223.97L226.578 17.2273H229.922L226.046 21.9844H225.268L223.547 24.0671ZM220.885 26.5V14.1364H223.837V26.5H220.885ZM226.644 26.5L224.217 22.6484L226.161 20.5536L230.055 26.5H226.644ZM232.983 29.9773C232.629 29.9773 232.295 29.9491 231.981 29.8927C231.667 29.8404 231.397 29.77 231.172 29.6815L231.824 27.5383C232.114 27.6349 232.375 27.6913 232.609 27.7074C232.846 27.7235 233.049 27.6852 233.218 27.5927C233.391 27.5041 233.524 27.3452 233.617 27.1158L233.731 26.8381L230.435 17.2273H233.526L235.235 23.8437H235.331L237.064 17.2273H240.173L236.677 27.3874C236.508 27.8945 236.269 28.3413 235.959 28.7276C235.653 29.118 235.257 29.4239 234.77 29.6452C234.287 29.8666 233.691 29.9773 232.983 29.9773Z" fill="#1185FE"/>
</g>
<defs>
<filter id="filter0_d_1_56" x="36.2857" y="3.78571" width="210.429" height="32.4286" filterUnits="userSpaceOnUse" color-interpolation-filters="sRGB">
<feFlood flood-opacity="0" result="BackgroundImageFix"/>
<feColorMatrix in="SourceAlpha" type="matrix" values="0 0 0 0 0 0 0 0 0 0 0 0 0 0 0 0 0 0 127 0" result="hardAlpha"/>
<feOffset/>
<feGaussianBlur stdDeviation="2.85714"/>
<feComposite in2="hardAlpha" operator="out"/>
<feColorMatrix type="matrix" values="0 0 0 0 0 0 0 0 0 0 0 0 0 0 0 0 0 0 0.25 0"/>
<feBlend mode="normal" in2="BackgroundImageFix" result="effect1_dropShadow_1_56"/>
<feBlend mode="normal" in="SourceGraphic" in2="effect1_dropShadow_1_56" result="shape"/>
</filter>
<linearGradient id="paint0_linear_1_56" x1="124.5" y1="0" x2="124.5" y2="40" gradientUnits="userSpaceOnUse">
<stop stop-color="#09437F"/>
<stop offset="1" stop-color="#05284C"/>
</linearGradient>
</defs>
</svg>
