<svg width="255" height="40" viewBox="0 0 255 40" fill="none" xmlns="http://www.w3.org/2000/svg">
<rect width="255" height="40" rx="8" fill="url(#paint0_linear_1_56)"/>
<rect x="1.07143" y="1.07143" width="252.857" height="37.8571" rx="6.92857" stroke="white" stroke-opacity="0.15" stroke-width="2.14286"/>
<path d="M14.0693 9.65949C17.2795 12.0695 20.7322 16.9561 22 19.5782C23.2678 16.9561 26.7205 12.0695 29.9307 9.65949C32.2469 7.92053 36 6.57505 36 10.8565C36 11.7116 35.5098 18.0395 35.2222 19.0669C34.2227 22.6386 30.5808 23.5496 27.341 22.9982C33.0039 23.962 34.4444 27.1544 31.3333 30.3468C25.4247 36.4097 22.841 28.8255 22.179 26.8822C22.0576 26.5259 22.0008 26.3593 22 26.501C21.9992 26.3593 21.9424 26.5259 21.821 26.8822C21.159 28.8255 18.5753 36.4097 12.6667 30.3468C9.55558 27.1544 10.9961 23.962 16.659 22.9982C13.4192 23.5496 9.77726 22.6386 8.77779 19.0669C8.49025 18.0395 8 11.7116 8 10.8565C8 6.57505 11.7531 7.92053 14.0693 9.65949Z" fill="#1185FE"/>
<g filter="url(#filter0_d_1_56)">
<path d="M53.6271 18.157H51.7436C51.6712 17.7545 51.5363 17.4003 51.3391 17.0945C51.1419 16.7886 50.9004 16.529 50.6147 16.3157C50.3289 16.1024 50.009 15.9414 49.6548 15.8327C49.3047 15.7241 48.9324 15.6697 48.538 15.6697C47.8256 15.6697 47.1877 15.8488 46.6243 16.207C46.0649 16.5652 45.6222 17.0904 45.2962 17.7827C44.9742 18.4749 44.8132 19.3201 44.8132 20.3182C44.8132 21.3243 44.9742 22.1735 45.2962 22.8658C45.6222 23.558 46.0669 24.0812 46.6303 24.4354C47.1938 24.7895 47.8276 24.9666 48.532 24.9666C48.9223 24.9666 49.2926 24.9143 49.6427 24.8097C49.9969 24.701 50.3169 24.542 50.6026 24.3327C50.8884 24.1235 51.1298 23.8679 51.327 23.566C51.5283 23.2602 51.6671 22.91 51.7436 22.5156L53.6271 22.5217C53.5265 23.1294 53.3313 23.6888 53.0415 24.1999C52.7558 24.707 52.3875 25.1457 51.9368 25.516C51.49 25.8822 50.9789 26.166 50.4034 26.3672C49.8279 26.5684 49.2 26.669 48.5199 26.669C47.4493 26.669 46.4955 26.4155 45.6584 25.9084C44.8213 25.3972 44.1612 24.6668 43.6783 23.717C43.1993 22.7672 42.9599 21.6342 42.9599 20.3182C42.9599 18.9981 43.2013 17.8652 43.6843 16.9194C44.1673 15.9696 44.8273 15.2411 45.6644 14.734C46.5015 14.2229 47.4534 13.9673 48.5199 13.9673C49.1759 13.9673 49.7876 14.0619 50.3551 14.2511C50.9266 14.4362 51.4397 14.7099 51.8945 15.0721C52.3493 15.4303 52.7256 15.869 53.0234 16.3881C53.3212 16.9033 53.5225 17.4929 53.6271 18.157ZM57.5194 20.9943V26.5H55.7144V14.1364H57.4953V18.7365H57.61C57.8273 18.2374 58.1593 17.841 58.6061 17.5472C59.0528 17.2534 59.6364 17.1065 60.3568 17.1065C60.9927 17.1065 61.5481 17.2373 62.023 17.4989C62.5019 17.7605 62.8722 18.1509 63.1338 18.6701C63.3994 19.1852 63.5322 19.8292 63.5322 20.6019V26.5H61.7272V20.8192C61.7272 20.1391 61.5521 19.6119 61.202 19.2376C60.8518 18.8593 60.3648 18.6701 59.741 18.6701C59.3144 18.6701 58.9321 18.7607 58.594 18.9418C58.26 19.1229 57.9963 19.3885 57.8032 19.7386C57.614 20.0848 57.5194 20.5033 57.5194 20.9943ZM68.6395 26.7053C68.0519 26.7053 67.5206 26.5966 67.0457 26.3793C66.5708 26.1579 66.1945 25.8379 65.9168 25.4194C65.6431 25.0008 65.5063 24.4877 65.5063 23.88C65.5063 23.3568 65.6069 22.9261 65.8081 22.5881C66.0094 22.25 66.281 21.9824 66.6231 21.7852C66.9652 21.5879 67.3476 21.439 67.7701 21.3384C68.1927 21.2378 68.6234 21.1613 69.062 21.109C69.6174 21.0446 70.0682 20.9923 70.4143 20.9521C70.7604 20.9078 71.012 20.8374 71.1689 20.7408C71.3259 20.6442 71.4044 20.4872 71.4044 20.2699V20.2276C71.4044 19.7004 71.2555 19.2919 70.9576 19.0021C70.6638 18.7124 70.2252 18.5675 69.6416 18.5675C69.0339 18.5675 68.5549 18.7023 68.2048 18.9719C67.8587 19.2376 67.6192 19.5334 67.4864 19.8594L65.79 19.473C65.9913 18.9096 66.2851 18.4548 66.6714 18.1087C67.0618 17.7585 67.5105 17.505 68.0177 17.348C68.5248 17.187 69.058 17.1065 69.6174 17.1065C69.9877 17.1065 70.3801 17.1508 70.7946 17.2393C71.2132 17.3239 71.6036 17.4808 71.9658 17.7102C72.332 17.9396 72.6319 18.2676 72.8653 18.6942C73.0987 19.1168 73.2154 19.6662 73.2154 20.3423V26.5H71.4527V25.2322H71.3802C71.2635 25.4657 71.0884 25.6951 70.855 25.9204C70.6216 26.1458 70.3217 26.333 69.9555 26.4819C69.5893 26.6308 69.1506 26.7053 68.6395 26.7053ZM69.0319 25.2564C69.5309 25.2564 69.9575 25.1578 70.3117 24.9606C70.6699 24.7634 70.9415 24.5058 71.1267 24.1879C71.3158 23.8659 71.4104 23.5218 71.4104 23.1555V21.9602C71.346 22.0246 71.2212 22.085 71.0361 22.1413C70.855 22.1937 70.6477 22.2399 70.4143 22.2802C70.1809 22.3164 69.9535 22.3506 69.7321 22.3828C69.5108 22.411 69.3257 22.4351 69.1767 22.4553C68.8266 22.4995 68.5066 22.574 68.2169 22.6786C67.9311 22.7833 67.7017 22.9342 67.5287 23.1314C67.3596 23.3246 67.2751 23.5821 67.2751 23.9041C67.2751 24.3508 67.4401 24.6889 67.7701 24.9183C68.1002 25.1437 68.5207 25.2564 69.0319 25.2564ZM79.9481 17.2273V18.6761H74.8832V17.2273H79.9481ZM76.2415 15.0057H78.0465V23.7773C78.0465 24.1275 78.0988 24.3911 78.2035 24.5682C78.3081 24.7412 78.4429 24.86 78.6079 24.9244C78.777 24.9847 78.9601 25.0149 79.1573 25.0149C79.3022 25.0149 79.429 25.0048 79.5376 24.9847C79.6463 24.9646 79.7308 24.9485 79.7912 24.9364L80.1172 26.4276C80.0125 26.4678 79.8636 26.508 79.6704 26.5483C79.4773 26.5926 79.2358 26.6167 78.946 26.6207C78.4711 26.6288 78.0284 26.5443 77.6179 26.3672C77.2074 26.1901 76.8753 25.9164 76.6218 25.5462C76.3682 25.1759 76.2415 24.7111 76.2415 24.1516V15.0057ZM88.4542 26.5L85.7255 17.2273H87.5909L89.408 24.0369H89.4986L91.3217 17.2273H93.1871L94.9982 24.0067H95.0888L96.8938 17.2273H98.7592L96.0366 26.5H94.1953L92.3118 19.805H92.1729L90.2894 26.5H88.4542ZM100.472 26.5V17.2273H102.277V26.5H100.472ZM101.384 15.7965C101.07 15.7965 100.8 15.6919 100.575 15.4826C100.353 15.2693 100.243 15.0157 100.243 14.7219C100.243 14.4241 100.353 14.1706 100.575 13.9613C100.8 13.748 101.07 13.6413 101.384 13.6413C101.698 13.6413 101.965 13.748 102.187 13.9613C102.412 14.1706 102.525 14.4241 102.525 14.7219C102.525 15.0157 102.412 15.2693 102.187 15.4826C101.965 15.6919 101.698 15.7965 101.384 15.7965ZM109.034 17.2273V18.6761H103.969V17.2273H109.034ZM105.327 15.0057H107.132V23.7773C107.132 24.1275 107.185 24.3911 107.289 24.5682C107.394 24.7412 107.529 24.86 107.694 24.9244C107.863 24.9847 108.046 25.0149 108.243 25.0149C108.388 25.0149 108.515 25.0048 108.624 24.9847C108.732 24.9646 108.817 24.9485 108.877 24.9364L109.203 26.4276C109.098 26.4678 108.95 26.508 108.756 26.5483C108.563 26.5926 108.322 26.6167 108.032 26.6207C107.557 26.6288 107.114 26.5443 106.704 26.3672C106.293 26.1901 105.961 25.9164 105.708 25.5462C105.454 25.1759 105.327 24.7111 105.327 24.1516V15.0057ZM113.035 20.9943V26.5H111.23V14.1364H113.011V18.7365H113.126C113.343 18.2374 113.675 17.841 114.122 17.5472C114.568 17.2534 115.152 17.1065 115.872 17.1065C116.508 17.1065 117.064 17.2373 117.539 17.4989C118.018 17.7605 118.388 18.1509 118.649 18.6701C118.915 19.1852 119.048 19.8292 119.048 20.6019V26.5H117.243V20.8192C117.243 20.1391 117.068 19.6119 116.718 19.2376C116.367 18.8593 115.88 18.6701 115.257 18.6701C114.83 18.6701 114.448 18.7607 114.11 18.9418C113.776 19.1229 113.512 19.3885 113.319 19.7386C113.13 20.0848 113.035 20.5033 113.035 20.9943ZM125.956 26.5V17.2273H127.688V18.7365H127.803C127.996 18.2254 128.312 17.8269 128.751 17.5412C129.189 17.2514 129.715 17.1065 130.326 17.1065C130.946 17.1065 131.465 17.2514 131.884 17.5412C132.306 17.831 132.618 18.2294 132.82 18.7365H132.916C133.138 18.2415 133.49 17.8471 133.973 17.5533C134.456 17.2554 135.031 17.1065 135.699 17.1065C136.54 17.1065 137.227 17.3701 137.758 17.8974C138.293 18.4246 138.561 19.2195 138.561 20.282V26.5H136.756V20.451C136.756 19.8232 136.585 19.3684 136.243 19.0866C135.9 18.8049 135.492 18.6641 135.017 18.6641C134.429 18.6641 133.973 18.8452 133.647 19.2074C133.321 19.5656 133.158 20.0264 133.158 20.5898V26.5H131.359V20.3363C131.359 19.8332 131.202 19.4287 130.888 19.1229C130.574 18.817 130.165 18.6641 129.662 18.6641C129.32 18.6641 129.004 18.7546 128.714 18.9357C128.429 19.1128 128.197 19.3603 128.02 19.6783C127.847 19.9962 127.761 20.3645 127.761 20.783V26.5H125.956ZM144.976 26.6871C144.063 26.6871 143.276 26.4919 142.616 26.1016C141.96 25.7071 141.453 25.1538 141.095 24.4414C140.741 23.725 140.563 22.8859 140.563 21.924C140.563 20.9742 140.741 20.1371 141.095 19.4126C141.453 18.6882 141.952 18.1227 142.592 17.7163C143.236 17.3098 143.988 17.1065 144.85 17.1065C145.373 17.1065 145.88 17.1931 146.371 17.3661C146.862 17.5392 147.303 17.8108 147.693 18.1811C148.083 18.5514 148.391 19.0323 148.617 19.6239C148.842 20.2115 148.955 20.9259 148.955 21.767V22.407H141.584V21.0547H147.186C147.186 20.5798 147.089 20.1592 146.896 19.793C146.703 19.4227 146.431 19.1309 146.081 18.9176C145.735 18.7043 145.329 18.5977 144.862 18.5977C144.355 18.5977 143.912 18.7224 143.534 18.9719C143.159 19.2174 142.87 19.5394 142.664 19.9379C142.463 20.3323 142.362 20.7609 142.362 21.2237V22.2802C142.362 22.9 142.471 23.4272 142.688 23.8619C142.91 24.2965 143.218 24.6285 143.612 24.8579C144.007 25.0833 144.467 25.196 144.995 25.196C145.337 25.196 145.649 25.1477 145.93 25.0511C146.212 24.9505 146.455 24.8016 146.661 24.6044C146.866 24.4072 147.023 24.1637 147.132 23.8739L148.84 24.1818C148.703 24.6849 148.458 25.1256 148.104 25.5039C147.753 25.8782 147.313 26.17 146.781 26.3793C146.254 26.5845 145.653 26.6871 144.976 26.6871ZM159.362 26.6871C158.493 26.6871 157.734 26.4879 157.087 26.0895C156.439 25.691 155.935 25.1336 155.577 24.4173C155.219 23.7009 155.04 22.8638 155.04 21.9059C155.04 20.944 155.219 20.1029 155.577 19.3825C155.935 18.662 156.439 18.1026 157.087 17.7042C157.734 17.3058 158.493 17.1065 159.362 17.1065C160.232 17.1065 160.99 17.3058 161.638 17.7042C162.286 18.1026 162.789 18.662 163.148 19.3825C163.506 20.1029 163.685 20.944 163.685 21.9059C163.685 22.8638 163.506 23.7009 163.148 24.4173C162.789 25.1336 162.286 25.691 161.638 26.0895C160.99 26.4879 160.232 26.6871 159.362 26.6871ZM159.368 25.1719C159.932 25.1719 160.399 25.023 160.769 24.7251C161.139 24.4273 161.413 24.0309 161.59 23.5359C161.771 23.0408 161.862 22.4955 161.862 21.8999C161.862 21.3082 161.771 20.7649 161.59 20.2699C161.413 19.7708 161.139 19.3704 160.769 19.0685C160.399 18.7667 159.932 18.6158 159.368 18.6158C158.801 18.6158 158.33 18.7667 157.956 19.0685C157.586 19.3704 157.31 19.7708 157.129 20.2699C156.952 20.7649 156.863 21.3082 156.863 21.8999C156.863 22.4955 156.952 23.0408 157.129 23.5359C157.31 24.0309 157.586 24.4273 157.956 24.7251C158.33 25.023 158.801 25.1719 159.368 25.1719ZM167.505 20.9943V26.5H165.7V17.2273H167.432V18.7365H167.547C167.76 18.2455 168.094 17.8511 168.549 17.5533C169.008 17.2554 169.585 17.1065 170.282 17.1065C170.914 17.1065 171.467 17.2393 171.942 17.505C172.417 17.7666 172.785 18.157 173.047 18.6761C173.308 19.1953 173.439 19.8372 173.439 20.6019V26.5H171.634V20.8192C171.634 20.1471 171.459 19.6219 171.109 19.2436C170.759 18.8613 170.278 18.6701 169.666 18.6701C169.247 18.6701 168.875 18.7607 168.549 18.9418C168.227 19.1229 167.972 19.3885 167.782 19.7386C167.597 20.0848 167.505 20.5033 167.505 20.9943Z" fill="#E8E8E8"/>
<path d="M179.936 26.5V14.1364H185.091C186.017 14.1364 186.792 14.2672 187.415 14.5288C188.043 14.7904 188.514 15.1566 188.828 15.6275C189.146 16.0984 189.305 16.6437 189.305 17.2635C189.305 17.7344 189.206 18.1549 189.009 18.5252C188.812 18.8915 188.54 19.1953 188.194 19.4368C187.848 19.6783 187.448 19.8473 186.993 19.9439V20.0646C187.492 20.0888 187.953 20.2236 188.375 20.4691C188.802 20.7146 189.144 21.0567 189.402 21.4954C189.659 21.93 189.788 22.4452 189.788 23.0408C189.788 23.7049 189.619 24.2985 189.281 24.8217C188.943 25.3409 188.454 25.7514 187.814 26.0533C187.174 26.3511 186.397 26.5 185.484 26.5H179.936ZM182.924 24.0913H184.771C185.419 24.0913 185.896 23.9685 186.202 23.723C186.512 23.4775 186.667 23.1354 186.667 22.6967C186.667 22.3788 186.592 22.1051 186.443 21.8757C186.295 21.6423 186.083 21.4632 185.81 21.3384C185.536 21.2096 185.208 21.1452 184.826 21.1452H182.924V24.0913ZM182.924 19.2195H184.578C184.904 19.2195 185.194 19.1651 185.447 19.0565C185.701 18.9478 185.898 18.7908 186.039 18.5856C186.184 18.3803 186.256 18.1328 186.256 17.843C186.256 17.4285 186.109 17.1025 185.816 16.8651C185.522 16.6276 185.125 16.5089 184.626 16.5089H182.924V19.2195ZM194.177 14.1364V26.5H191.225V14.1364H194.177ZM202.038 22.4975V17.2273H204.984V26.5H202.171V24.7734H202.075C201.869 25.3409 201.519 25.7917 201.024 26.1257C200.533 26.4557 199.94 26.6207 199.243 26.6207C198.611 26.6207 198.056 26.4758 197.577 26.1861C197.098 25.8963 196.726 25.4918 196.46 24.9727C196.195 24.4495 196.06 23.8377 196.056 23.1374V17.2273H199.008V22.5579C199.012 23.061 199.145 23.4574 199.406 23.7472C199.668 24.0369 200.024 24.1818 200.475 24.1818C200.769 24.1818 201.032 24.1174 201.266 23.9886C201.503 23.8558 201.69 23.6646 201.827 23.4151C201.968 23.1616 202.038 22.8557 202.038 22.4975ZM211.198 26.6751C210.228 26.6751 209.391 26.4839 208.687 26.1016C207.986 25.7152 207.447 25.1658 207.069 24.4535C206.694 23.7371 206.507 22.8859 206.507 21.8999C206.507 20.942 206.696 20.1049 207.075 19.3885C207.453 18.6681 207.986 18.1087 208.674 17.7102C209.363 17.3078 210.174 17.1065 211.107 17.1065C211.767 17.1065 212.371 17.2092 212.918 17.4144C213.466 17.6197 213.939 17.9235 214.337 18.326C214.736 18.7285 215.045 19.2255 215.267 19.8171C215.488 20.4047 215.599 21.0788 215.599 21.8395V22.576H207.54V20.8615H212.852C212.848 20.5476 212.774 20.2679 212.629 20.0224C212.484 19.7769 212.285 19.5857 212.031 19.4489C211.781 19.308 211.494 19.2376 211.168 19.2376C210.838 19.2376 210.542 19.312 210.28 19.4609C210.019 19.6058 209.811 19.805 209.659 20.0586C209.506 20.3081 209.425 20.5919 209.417 20.9098V22.6545C209.417 23.0328 209.491 23.3648 209.64 23.6506C209.789 23.9323 210.001 24.1516 210.274 24.3086C210.548 24.4655 210.874 24.544 211.252 24.544C211.514 24.544 211.751 24.5078 211.965 24.4354C212.178 24.3629 212.361 24.2563 212.514 24.1154C212.667 23.9745 212.782 23.8015 212.858 23.5962L215.569 23.6747C215.456 24.2824 215.208 24.8117 214.826 25.2624C214.448 25.7092 213.951 26.0573 213.335 26.3068C212.719 26.5523 212.007 26.6751 211.198 26.6751ZM225.202 20.0586L222.492 20.131C222.463 19.9379 222.387 19.7668 222.262 19.6179C222.137 19.465 221.974 19.3462 221.773 19.2617C221.576 19.1732 221.347 19.1289 221.085 19.1289C220.743 19.1289 220.451 19.1973 220.21 19.3342C219.972 19.471 219.855 19.6561 219.859 19.8896C219.855 20.0707 219.928 20.2276 220.077 20.3604C220.23 20.4932 220.501 20.5999 220.892 20.6804L222.679 21.0185C223.604 21.1955 224.293 21.4893 224.743 21.8999C225.198 22.3104 225.427 22.8537 225.431 23.5298C225.427 24.1657 225.238 24.7191 224.864 25.19C224.494 25.6609 223.987 26.0271 223.343 26.2887C222.699 26.5463 221.962 26.6751 221.133 26.6751C219.809 26.6751 218.765 26.4034 218 25.8601C217.239 25.3127 216.805 24.5803 216.696 23.6626L219.612 23.5902C219.676 23.9283 219.843 24.1858 220.113 24.3629C220.383 24.54 220.727 24.6285 221.145 24.6285C221.524 24.6285 221.831 24.5581 222.069 24.4173C222.306 24.2764 222.427 24.0892 222.431 23.8558C222.427 23.6465 222.335 23.4795 222.153 23.3548C221.972 23.226 221.689 23.1254 221.302 23.0529L219.684 22.745C218.755 22.576 218.062 22.2641 217.608 21.8093C217.153 21.3505 216.927 20.7669 216.931 20.0586C216.927 19.4388 217.092 18.9096 217.427 18.4709C217.761 18.0282 218.235 17.6901 218.851 17.4567C219.467 17.2232 220.193 17.1065 221.031 17.1065C222.286 17.1065 223.276 17.3701 224.001 17.8974C224.725 18.4206 225.126 19.141 225.202 20.0586ZM229.547 24.0671L229.559 20.5476H229.97L232.578 17.2273H235.922L232.046 21.9844H231.268L229.547 24.0671ZM226.885 26.5V14.1364H229.837V26.5H226.885ZM232.644 26.5L230.217 22.6484L232.161 20.5536L236.055 26.5H232.644ZM238.983 29.9773C238.629 29.9773 238.295 29.9491 237.981 29.8927C237.667 29.8404 237.397 29.77 237.172 29.6815L237.824 27.5383C238.114 27.6349 238.375 27.6913 238.609 27.7074C238.846 27.7235 239.049 27.6852 239.218 27.5927C239.391 27.5041 239.524 27.3452 239.617 27.1158L239.731 26.8381L236.435 17.2273H239.526L241.235 23.8437H241.331L243.064 17.2273H246.173L242.677 27.3874C242.508 27.8945 242.269 28.3413 241.959 28.7276C241.653 29.118 241.257 29.4239 240.77 29.6452C240.287 29.8666 239.691 29.9773 238.983 29.9773Z" fill="#1185FE"/>
</g>
<defs>
<filter id="filter0_d_1_56" x="36.2857" y="3.78571" width="216.429" height="32.4286" filterUnits="userSpaceOnUse" color-interpolation-filters="sRGB">
<feFlood flood-opacity="0" result="BackgroundImageFix"/>
<feColorMatrix in="SourceAlpha" type="matrix" values="0 0 0 0 0 0 0 0 0 0 0 0 0 0 0 0 0 0 127 0" result="hardAlpha"/>
<feOffset/>
<feGaussianBlur stdDeviation="2.85714"/>
<feComposite in2="hardAlpha" operator="out"/>
<feColorMatrix type="matrix" values="0 0 0 0 0 0 0 0 0 0 0 0 0 0 0 0 0 0 0.25 0"/>
<feBlend mode="normal" in2="BackgroundImageFix" result="effect1_dropShadow_1_56"/>
<feBlend mode="normal" in="SourceGraphic" in2="effect1_dropShadow_1_56" result="shape"/>
</filter>
<linearGradient id="paint0_linear_1_56" x1="127.5" y1="0" x2="127.5" y2="40" gradientUnits="userSpaceOnUse">
<stop stop-color="#09437F"/>
<stop offset="1" stop-color="#05284C"/>
</linearGradient>
</defs>
</svg>
