<svg width="40" height="40" viewBox="0 0 40 40" fill="none" xmlns="http://www.w3.org/2000/svg">
<rect width="40" height="40" rx="8" fill="url(#paint0_linear_1_68)"/>
<rect x="1.05" y="1.05" width="37.9" height="37.9" rx="6.95" stroke="white" stroke-opacity="0.15" stroke-width="2.1"/>
<path d="M12.0693 9.65949C15.2795 12.0695 18.7322 16.9561 20 19.5782C21.2678 16.9561 24.7205 12.0695 27.9307 9.65949C30.2469 7.92053 34 6.57505 34 10.8565C34 11.7116 33.5098 18.0395 33.2222 19.0669C32.2227 22.6386 28.5808 23.5496 25.341 22.9982C31.0039 23.962 32.4444 27.1544 29.3333 30.3468C23.4247 36.4097 20.841 28.8255 20.179 26.8822C20.0576 26.5259 20.0008 26.3593 20 26.501C19.9992 26.3593 19.9424 26.5259 19.821 26.8822C19.159 28.8255 16.5753 36.4097 10.6667 30.3468C7.55558 27.1544 8.9961 23.962 14.6589 22.9982C11.4192 23.5496 7.77726 22.6386 6.77779 19.0669C6.49024 18.0395 6 11.7116 6 10.8565C6 6.57505 9.75308 7.92053 12.0693 9.65949Z" fill="#1185FE"/>
<defs>
<linearGradient id="paint0_linear_1_68" x1="20" y1="0" x2="20" y2="40" gradientUnits="userSpaceOnUse">
<stop stop-color="#09437F"/>
<stop offset="1" stop-color="#05284C"/>
</linearGradient>
</defs>
</svg>
