<svg width="56" height="56" viewBox="0 0 56 56" fill="none" xmlns="http://www.w3.org/2000/svg">
<rect width="56" height="56" rx="8.4" fill="url(#paint0_linear_1_62)"/>
<rect x="1.05" y="1.05" width="53.9" height="53.9" rx="7.35" stroke="white" stroke-opacity="0.15" stroke-width="2.1"/>
<path d="M16.6705 12.3707C21.2564 15.8135 26.1888 22.7944 28 26.5403C29.8112 22.7944 34.7436 15.8135 39.3295 12.3707C42.6385 9.88647 48 7.96436 48 14.0807C48 15.3022 47.2996 24.3422 46.8889 25.8099C45.4611 30.9122 40.2582 32.2137 35.6301 31.426C43.7199 32.8028 45.7777 37.3634 41.3333 41.9239C32.8925 50.5853 29.2015 39.7508 28.2557 36.9746C28.0823 36.4656 28.0012 36.2275 28 36.43C27.9988 36.2275 27.9177 36.4656 27.7443 36.9746C26.7985 39.7508 23.1075 50.5853 14.6667 41.9239C10.2223 37.3634 12.2801 32.8028 20.3699 31.426C15.7418 32.2137 10.5389 30.9122 9.11112 25.8099C8.70035 24.3422 8 15.3022 8 14.0807C8 7.96436 13.3615 9.88647 16.6705 12.3707Z" fill="#1185FE"/>
<defs>
<linearGradient id="paint0_linear_1_62" x1="28" y1="0" x2="28" y2="56" gradientUnits="userSpaceOnUse">
<stop stop-color="#09437F"/>
<stop offset="1" stop-color="#05284C"/>
</linearGradient>
</defs>
</svg>
